PathFileType  4	(X/Y/Z) C:\Users\antoi\Documents\MyRepositories\mobilecap\ResultsAnalysis
DataRate	CameraRate	NumFrames	NumMarkers	Units	OrigDataRate	OrigDataStartFrame	OrigNumFrames
100.0	100.0	6	51	mm	100.0	1	151
Frame#	Time	r_knee			r_shank_antsup			r_ankle			r_calc			r_5meta			r_toe			L_knee			L_shank_antsup			L_ankle			L_calc			L_5meta			L_toe			r_sh2			r_sh3			r_sh4			L_sh2			L_sh3			r_thigh1			r_thigh2			r_thigh3			r_thigh4			r_thigh5			L_thigh1			L_thigh2			L_thigh3			L_thigh4			r.ASIS			r.PSIS			L.ASIS			L.PSIS			C7			R_Shoulder			L_Shoulder			R_Sternum			L_Sternum			R_humerus			R_elbow_med			R_elbow_lat			R_forearm			R_wrist_radius			R_wrist_ulna			L_humerus			L_elbow_med			L_elbow_lat			L_forearm			L_wrist_radius			L_wrist_ulna			R_HJC			L_HJC			R_HJC_reg			L_HJC_reg			
		X1	Y1	Z1	X2	Y2	Z2	X3	Y3	Z3	X4	Y4	Z4	X5	Y5	Z5	X6	Y6	Z6	X7	Y7	Z7	X8	Y8	Z8	X9	Y9	Z9	X10	Y10	Z10	X11	Y11	Z11	X12	Y12	Z12	X13	Y13	Z13	X14	Y14	Z14	X15	Y15	Z15	X16	Y16	Z16	X17	Y17	Z17	X18	Y18	Z18	X19	Y19	Z19	X20	Y20	Z20	X21	Y21	Z21	X22	Y22	Z22	X23	Y23	Z23	X24	Y24	Z24	X25	Y25	Z25	X26	Y26	Z26	X27	Y27	Z27	X28	Y28	Z28	X29	Y29	Z29	X30	Y30	Z30	X31	Y31	Z31	X32	Y32	Z32	X33	Y33	Z33	X34	Y34	Z34	X35	Y35	Z35	X36	Y36	Z36	X37	Y37	Z37	X38	Y38	Z38	X39	Y39	Z39	X40	Y40	Z40	X41	Y41	Z41	X42	Y42	Z42	X43	Y43	Z43	X44	Y44	Z44	X45	Y45	Z45	X46	Y46	Z46	X47	Y47	Z47	X48	Y48	Z48	X49	Y49	Z49	X50	Y50	Z50	X51	Y51	Z51	

1	0.00000000	99.37630	598.85480	-73.16928	153.55597	456.45431	-89.34918	143.26739	92.96851	-111.93547	90.92382	71.29669	-179.11283	283.88095	44.38591	-86.35278	321.86867	78.77001	-132.88353	-227.92321	568.99926	-354.53312	-307.04415	377.62776	-318.04223	-570.57910	207.75907	-294.62367	-631.10974	222.18187	-224.29589	-520.13706	57.31337	-329.61909	-468.14509	56.28841	-272.87469	169.46300	345.30992	-101.95600	92.48746	440.61925	-44.97418	105.66464	328.36273	-49.78310	-358.93613	424.34266	-372.18713	-440.77374	344.74237	-345.47592	22.37302	874.12166	-24.91279	78.24481	779.55090	-36.80280	35.47749	728.32053	-31.51725	-77.73637	823.74515	-46.57365	-19.41168	720.55190	-50.25405	-93.48750	847.23281	-373.71452	-120.90208	716.21557	-370.47646	-200.97577	872.36981	-378.98518	-228.55619	738.69198	-375.72068	-20.93687	1136.01891	-66.65754	-215.33019	1157.85608	-143.38610	-38.12150	1127.89501	-344.49165	-219.71923	1162.03167	-235.85435	-174.74944	1650.21144	-175.24902	-115.05388	1593.22769	-1.08111	-106.63142	1630.98063	-352.01680	-31.48895	1564.68187	-147.97737	-27.54480	1570.48579	-204.84902	-157.29354	1319.12805	43.88477	-252.70869	1222.59064	-9.82917	-246.69286	1236.09760	61.86476	-174.76888	1031.73913	79.91285	-148.96969	937.80986	74.19840	-182.79978	937.16825	93.89301	-98.15669	1336.78332	-424.74349	-190.25263	1260.27515	-384.70515	-163.28248	1258.77252	-456.66852	-73.36123	1072.61111	-482.21183	-42.78668	999.23840	-473.42820	-66.40786	999.81630	-499.43449	-98.01609	1037.20022	-99.10487	-117.42628	1036.76625	-295.62429	-89.23543	1038.76908	-107.53648	-97.94082	1047.05118	-290.94231	
2	0.01000000	110.31845	599.47720	-72.61062	162.54307	456.30197	-89.14312	144.14017	93.36198	-112.36249	91.54045	71.77348	-179.09181	284.37749	43.96080	-86.47127	323.08704	77.16936	-133.26872	-202.38692	567.26456	-356.43075	-286.05306	378.74787	-320.03542	-553.83717	218.34691	-295.41249	-612.11157	237.44432	-225.07313	-514.41413	65.14670	-329.64168	-462.05859	59.83397	-273.50614	175.91684	344.89340	-102.14174	101.53709	441.54495	-44.15503	112.59413	329.05543	-49.26960	-336.41204	427.34835	-373.69484	-420.55423	350.46908	-346.76489	34.79433	875.28947	-23.09102	90.11960	780.29398	-34.89867	46.88461	729.38016	-30.21859	-65.62866	825.76218	-45.65306	-7.94159	722.17957	-49.31020	-75.50961	848.36047	-373.83744	-99.24043	716.61525	-372.29674	-183.30617	870.63529	-377.79534	-207.50599	736.38034	-376.05649	-7.15521	1137.90776	-65.32496	-201.86933	1159.69467	-142.00709	-25.26226	1129.66226	-343.01743	-206.57151	1163.45155	-234.57693	-161.55590	1651.91144	-172.71154	-100.91422	1594.79521	1.13306	-93.47440	1633.25570	-349.55884	-17.98440	1566.44034	-146.02094	-14.20482	1572.44232	-202.73192	-143.24760	1320.68254	45.62231	-238.90674	1224.42715	-8.16549	-232.67051	1237.66113	63.59019	-160.61500	1033.37207	81.07308	-134.55731	939.46172	75.05843	-168.23280	938.77632	94.79382	-86.27005	1339.25768	-422.80875	-178.49921	1263.40933	-382.51675	-151.86558	1261.68725	-454.53736	-62.96366	1075.04148	-480.66933	-32.93331	1001.32772	-472.18180	-56.60506	1002.35710	-498.13414	-84.41406	1039.05833	-97.67135	-104.16565	1038.40091	-294.15746	-75.70922	1041.16524	-105.52807	-85.02215	1048.60870	-288.88499	
3	0.02000000	120.88513	600.06049	-71.99566	171.06309	456.09398	-88.80296	144.94676	93.72847	-112.70411	92.12075	72.22366	-179.02957	284.84611	43.50049	-86.53919	324.20924	75.57969	-133.59743	-176.67632	565.67724	-358.25364	-264.64178	379.98554	-322.02853	-536.44630	228.71123	-296.29767	-592.31043	252.41149	-225.93636	-508.11128	73.06838	-329.70032	-455.53089	63.50009	-274.23755	182.03271	344.44529	-102.16893	109.99147	442.39585	-43.37477	118.96665	329.68491	-48.84278	-313.53528	430.40455	-375.18487	-399.88947	356.17680	-348.07148	47.05276	876.45851	-21.35245	101.74273	781.01504	-33.07753	58.04344	730.43909	-28.95468	-53.62711	827.76477	-44.70566	3.28098	723.82991	-48.38583	-57.49069	849.55605	-373.96296	-77.50784	717.13993	-374.00350	-165.62910	868.93021	-376.64585	-186.34023	734.12488	-376.38933	6.55875	1139.81083	-64.04689	-188.49743	1161.57859	-140.59603	-12.59788	1131.41311	-341.58896	-193.57431	1164.89797	-233.26532	-148.39698	1653.64165	-170.18221	-86.78809	1596.36395	3.32242	-80.41928	1635.51307	-347.13368	-4.54104	1568.20139	-144.10015	-0.91825	1574.38125	-200.66791	-129.20340	1322.23613	47.39708	-225.13777	1226.25130	-6.40038	-218.64846	1239.22089	65.40292	-146.39267	1035.01077	82.26326	-120.07332	941.13395	75.93742	-153.63290	940.38552	95.73250	-74.45958	1341.71465	-420.92655	-166.84215	1266.50237	-380.42486	-140.51077	1264.57340	-452.48574	-52.57482	1077.47487	-479.16642	-23.04294	1003.41855	-470.93445	-46.75384	1004.88848	-496.85362	-70.91104	1040.94219	-96.24515	-91.09611	1040.03903	-292.68655	-62.26927	1043.59676	-103.51202	-72.30944	1050.16553	-286.81244	
4	0.03000000	130.76805	600.56659	-71.27675	178.76812	455.78835	-88.22666	145.62557	94.05438	-112.89383	92.63716	72.62854	-178.90151	285.26024	42.98566	-86.52285	325.16053	74.01601	-133.83256	-150.67526	564.38420	-359.95029	-242.46583	381.44349	-324.01756	-517.91075	238.65568	-297.34851	-571.10191	266.79325	-226.93101	-500.71070	81.12012	-329.82689	-448.12879	67.39603	-275.15237	187.55549	343.94414	-101.92116	117.41668	443.11778	-42.65632	124.38154	330.20602	-48.55248	-290.03652	433.54384	-376.65009	-378.43106	361.83385	-349.41357	59.01267	877.63043	-19.75934	112.91468	781.69739	-31.39584	68.75416	731.49804	-27.73951	-41.84415	829.74970	-43.71152	14.06073	725.51853	-47.48702	-39.41027	850.89295	-374.09145	-55.67050	717.90591	-375.50363	-147.93596	867.30682	-375.57398	-164.98151	731.99815	-376.70480	20.14734	1141.74121	-62.87603	-175.28810	1163.53949	-139.13119	-0.28141	1133.14313	-340.24998	-180.84432	1166.39232	-231.89482	-135.30761	1655.42478	-167.67249	-72.69320	1597.93503	5.46480	-67.56148	1637.74125	-344.77110	8.79506	1569.96575	-142.24917	12.25986	1576.29001	-198.70346	-115.16068	1323.78859	49.23461	-211.42607	1228.04771	-4.45353	-204.61851	1240.77249	67.37247	-132.04659	1036.65699	83.50820	-105.46141	942.84227	76.84631	-138.95893	941.99631	96.74289	-62.79508	1344.14139	-419.14059	-155.35277	1269.51477	-378.49884	-129.27079	1267.40454	-450.57400	-42.20628	1079.91679	-477.73265	-13.09077	1005.51504	-469.69155	-36.81747	1007.40219	-495.61033	-57.58260	1042.87155	-94.84151	-78.36597	1041.68831	-291.21745	-48.98597	1046.08926	-101.50015	-59.95676	1051.72778	-284.72890	
5	0.04000000	139.77574	600.96602	-70.42484	185.50058	455.36909	-87.37142	146.13051	94.34274	-112.89725	93.07517	72.98193	-178.70700	285.59808	42.42097	-86.41410	325.90160	72.50302	-133.96319	-124.37770	563.52731	-361.50293	-219.33867	383.19718	-325.98770	-497.99596	248.02964	-298.58727	-548.23384	280.30768	-228.04200	-491.78313	89.26757	-330.05311	-439.42459	71.60934	-276.30736	192.36480	343.38733	-101.35420	123.64128	443.68945	-41.99832	128.69199	330.60398	-48.39081	-265.79950	436.77446	-378.09569	-356.00673	367.39312	-350.80504	70.57804	878.80536	-18.33977	123.51694	782.33142	-29.87130	78.88882	732.55892	-26.56044	-30.40113	831.72951	-42.66312	24.28179	727.24523	-46.60049	-21.28991	852.44893	-374.22063	-33.76301	719.01331	-376.74000	-130.23163	865.84929	-374.60886	-143.42865	730.09828	-376.97482	33.55911	1143.70770	-61.85777	-162.29947	1165.58635	-137.60901	11.60020	1134.86686	-339.03775	-168.45012	1167.94667	-230.45638	-122.32946	1657.27072	-165.19870	-58.66104	1599.50841	7.54075	-54.98852	1639.93790	-342.49626	21.98911	1571.73095	-140.49960	25.26584	1578.16294	-196.87502	-101.12501	1325.33951	51.14060	-197.79048	1229.79795	-2.28252	-190.57101	1242.30920	69.53660	-117.55048	1038.30705	84.82415	-90.69719	944.59551	77.78292	-124.16941	943.60765	97.85084	-51.34111	1346.53137	-417.47982	-144.07493	1272.41180	-376.76625	-118.19153	1270.15860	-448.83193	-31.87852	1082.37496	-476.38272	-3.07493	1007.62641	-468.46793	-26.78363	1009.89180	-494.41803	-44.47648	1044.85468	-93.48686	-66.05875	1043.36277	-289.77139	-35.91421	1048.65208	-99.53283	-48.03941	1053.31126	-282.66815	
6	0.05000000	147.86264	601.24916	-69.43605	191.30229	454.85171	-86.26580	146.44667	94.60409	-112.71541	93.43199	73.29070	-178.46353	285.84740	41.83141	-86.22751	326.43171	71.07770	-133.99723	-97.87755	563.23526	-362.92386	-195.26107	385.29503	-327.90810	-476.72464	256.75064	-299.98369	-523.83601	292.70188	-229.20080	-480.94608	97.41377	-330.42599	-428.96153	76.21287	-277.73488	196.48571	342.79391	-100.50293	128.77243	444.12244	-41.37346	132.01864	330.89659	-48.29185	-240.85984	440.09564	-379.53383	-332.62475	372.81210	-352.25013	81.70267	879.97964	-17.08485	133.52339	782.91315	-28.48707	88.39796	733.62516	-25.38728	-19.40680	833.72984	-41.56525	33.91688	728.98723	-45.69466	-3.18147	854.30144	-374.34658	-11.87130	720.54417	-377.69934	-112.53356	864.66380	-373.76532	-121.75023	728.54449	-377.16575	46.75151	1145.71372	-61.02106	-149.57022	1167.70723	-136.04501	23.04229	1136.61989	-337.97649	-156.40364	1169.56361	-228.95493	-109.50104	1659.17771	-162.77679	-44.72777	1601.08316	9.53423	-42.76700	1642.11212	-340.32657	35.01583	1573.49336	-138.87753	38.03540	1580.00168	-195.20759	-87.10233	1326.88847	53.10205	-184.23835	1231.48686	0.11393	-176.49472	1243.82276	71.89936	-102.89992	1039.95568	86.22075	-75.78003	946.39830	78.73280	-109.22260	945.21884	99.07335	-40.14833	1348.88644	-415.95503	-133.02733	1275.17155	-375.21277	-107.30973	1272.82367	-447.25643	-21.61272	1084.85902	-475.11728	6.99214	1009.77096	-467.28476	-16.66034	1012.35633	-493.28571	-31.60935	1046.88807	-92.21443	-54.18103	1045.08436	-288.38176	-23.09144	1051.28193	-97.67116	-36.54372	1054.94135	-280.68755	
